# xmcd
#
# Track frame offsets: 
#        150
#        15336
#        30396
#        44208
#        57894
#        69575
#        87892
#        104269
#        114275
#        127478
#        138711
#        151925
#
# Disc length: 2285 seconds
#
# Revision: 0
# Processed by: cddbd v1.5.2PL0 Copyright (c) Steve Scherf et al.
# Submitted via: ExactAudioCopy v0.99pb5
#
DISCID=a208eb0c
DTITLE=Ronnie Milsap - Out Where The Bright Lights Are Glowing (Vinyl)
DYEAR=1900
DGENRE=Country
TTITLE0=Out Where The Bright Lights Are Glowing
TTITLE1=Four Walls
TTITLE2=Pride Goes Before A Fall
TTITLE3=I'm Beginning To Forget You
TTITLE4=He'll Have To Go
TTITLE5=I'm Getting Better
TTITLE6=Am I Loosing You
TTITLE7=I Wont Forget You
TTITLE8=I Guess Im Crazy
TTITLE9=When Two Worlds Collide
TTITLE10=Missing You
TTITLE11=Deer Friend (To Jim Reeves)
EXTD=
EXTT0=
EXTT1=
EXTT2=
EXTT3=
EXTT4=
EXTT5=
EXTT6=
EXTT7=
EXTT8=
EXTT9=
EXTT10=
EXTT11=
PLAYORDER=
